C:\Users\israe\Dropbox\PhDWork\ExperimentalData\subject7\055\P7S055W02_filtered35.mot
nRows=20
nColumns=28

name C:\Users\israe\Dropbox\PhDWork\ExperimentalData\subject7\055\P7S055W02_filtered35.mot
datacolumns 28
datarows 20
range 2.8200000000 2.8390000000
endheader
time	ground_force_1_vx	ground_force_1_vy	ground_force_1_vz	ground_force_1_px	ground_force_1_py	ground_force_1_pz	ground_moment_1_mx	ground_moment_1_my	ground_moment_1_mz	ground_force_2_vx	ground_force_2_vy	ground_force_2_vz	ground_force_2_px	ground_force_2_py	ground_force_2_pz	ground_moment_2_mx	ground_moment_2_my	ground_moment_2_mz	ground_force_3_vx	ground_force_3_vy	ground_force_3_vz	ground_force_3_px	ground_force_3_py	ground_force_3_pz	ground_moment_3_mx	ground_moment_3_my	ground_moment_3_mz
        2.8200000000	        0.0549027789	        0.0000000000	       -0.0262491234	        0.1988394961	        0.0000558755	       -0.3004071324	        0.0252372281	       -0.0010338097	        0.0102266701	        0.0000000000	        0.0000000000	        0.0000000000	        0.2029003516	       -0.0000795827	        0.4543649445	        0.0000000000	        0.0000000000	        0.0000000000	       -0.0000000000	        0.0000000000	       -0.0000000000	        0.2076431971	        0.0000770316	        1.3583900146	        0.0000000000	        0.0000000000	       -0.0000000000	
        2.8210000000	        0.0407536000	        0.0000000000	       -0.0192845313	        0.1988394961	        0.0000558755	       -0.3004071324	        0.0187983272	       -0.0009018641	        0.0074693529	        0.0000000000	        0.0000000000	        0.0000000000	        0.2029003516	       -0.0000795827	        0.4543649445	        0.0000000000	        0.0000000000	        0.0000000000	       -0.0000000000	        0.0000000000	       -0.0000000000	        0.2076431971	        0.0000770316	        1.3583900146	        0.0000000000	        0.0000000000	       -0.0000000000	
        2.8220000000	        0.0285966100	        0.0000000000	       -0.0133491478	        0.1988394961	        0.0000558755	       -0.3004071324	        0.0132501915	       -0.0007557906	        0.0051298767	        0.0000000000	        0.0000000000	        0.0000000000	        0.2029003516	       -0.0000795827	        0.4543649445	        0.0000000000	        0.0000000000	        0.0000000000	       -0.0000000000	        0.0000000000	       -0.0000000000	        0.2076431971	        0.0000770316	        1.3583900146	        0.0000000000	        0.0000000000	       -0.0000000000	
        2.8230000000	        0.0185536220	        0.0000000000	       -0.0084842695	        0.1988394961	        0.0000558755	       -0.3004071324	        0.0086543318	       -0.0006092840	        0.0032206084	        0.0000000000	        0.0000000000	        0.0000000000	        0.2029003516	       -0.0000795827	        0.4543649445	        0.0000000000	        0.0000000000	        0.0000000000	       -0.0000000000	        0.0000000000	       -0.0000000000	        0.2076431971	        0.0000770316	        1.3583900146	        0.0000000000	        0.0000000000	       -0.0000000000	
        2.8240000000	        0.0105748114	        0.0000000000	       -0.0046508289	        0.1988394961	        0.0000558755	       -0.3004071324	        0.0049928091	       -0.0004716660	        0.0017229771	        0.0000000000	        0.0000000000	        0.0000000000	        0.2029003516	       -0.0000795827	        0.4543649445	        0.0000000000	        0.0000000000	        0.0000000000	       -0.0000000000	        0.0000000000	       -0.0000000000	        0.2076431971	        0.0000770316	        1.3583900146	        0.0000000000	        0.0000000000	       -0.0000000000	
        2.8250000000	        0.0044969892	        0.0000000000	       -0.0017576654	        0.1988394961	        0.0000558755	       -0.3004071324	        0.0021948886	       -0.0003487058	        0.0005985799	       -0.0000000000	        0.0000000000	       -0.0000000000	        0.2029003516	       -0.0000795827	        0.4543649445	       -0.0000000000	       -0.0000000000	       -0.0000000000	       -0.0000000000	        0.0000000000	       -0.0000000000	        0.2076431971	        0.0000770316	        1.3583900146	        0.0000000000	        0.0000000000	       -0.0000000000	
        2.8260000000	        0.0000902570	        0.0000000000	        0.0003160220	        0.1988394961	        0.0000558755	       -0.3004071324	        0.0001584371	       -0.0002434000	       -0.0002020395	       -0.0000000000	        0.0000000000	       -0.0000000000	        0.2029003516	       -0.0000795827	        0.4543649445	       -0.0000000000	       -0.0000000000	       -0.0000000000	        0.0000000000	        0.0000000000	        0.0000000000	        0.2076431971	        0.0000770316	        1.3583900146	       -0.0000000000	       -0.0000000000	        0.0000000000	
        2.8270000000	       -0.0029061492	        0.0213875492	        0.0017035797	        0.1988394961	        0.0000558755	       -0.3004071324	       -0.0012335865	       -0.0001566761	       -0.0007327387	       -0.0000000000	        0.0000000000	       -0.0000000000	        0.2029003516	       -0.0000795827	        0.4543649445	       -0.0000000000	       -0.0000000000	       -0.0000000000	        0.0000000000	        0.0000000000	        0.0000000000	        0.2076431971	        0.0000770316	        1.3583900146	       -0.0000000000	       -0.0000000000	        0.0000000000	
        2.8280000000	       -0.0047575969	        0.0362721128	        0.0025385104	        0.1988394961	        0.0000558755	       -0.3004071324	       -0.0021010053	       -0.0000879988	       -0.0010469872	       -0.0000000000	        0.0000000000	       -0.0000000000	        0.2029003516	       -0.0000795827	        0.4543649445	       -0.0000000000	       -0.0000000000	       -0.0000000000	        0.0000000000	        0.0000000000	        0.0000000000	        0.2076431971	        0.0000770316	        1.3583900146	       -0.0000000000	       -0.0000000000	        0.0000000000	
        2.8290000000	       -0.0057159464	        0.0441005456	        0.0029460559	        0.1988394961	        0.0000558755	       -0.3004071324	       -0.0025580207	       -0.0000358736	       -0.0011946399	       -0.0000000000	        0.0000000000	       -0.0000000000	        0.2029003516	       -0.0000795827	        0.4543649445	       -0.0000000000	       -0.0000000000	       -0.0000000000	        0.0000000000	        0.0000000000	        0.0000000000	        0.2076431971	        0.0000770316	        1.3583900146	       -0.0000000000	       -0.0000000000	        0.0000000000	
        2.8300000000	       -0.0060081050	        0.0466494896	        0.0030380014	        0.1988394961	        0.0000558755	       -0.3004071324	       -0.0027078607	        0.0000017509	       -0.0012199734	       -0.0000000000	        0.0000000000	       -0.0000000000	        0.2029003516	       -0.0000795827	        0.4543649445	       -0.0000000000	       -0.0000000000	       -0.0000000000	        0.0000000000	        0.0000000000	        0.0000000000	        0.2076431971	        0.0000770316	        1.3583900146	       -0.0000000000	       -0.0000000000	        0.0000000000	
        2.8310000000	       -0.0058298239	        0.0454556071	        0.0029099936	        0.1988394961	        0.0000558755	       -0.3004071324	       -0.0026398365	        0.0000271761	       -0.0011607039	       -0.0000000000	        0.0000000000	       -0.0000000000	        0.2029003516	       -0.0000795827	        0.4543649445	       -0.0000000000	       -0.0000000000	       -0.0000000000	        0.0000000000	        0.0000000000	        0.0000000000	        0.2076431971	        0.0000770316	        1.3583900146	       -0.0000000000	       -0.0000000000	        0.0000000000	
        2.8320000000	       -0.0053434398	        0.0417963809	        0.0026407316	        0.1988394961	        0.0000558755	       -0.3004071324	       -0.0024282162	        0.0000427283	       -0.0010477310	       -0.0000000000	        0.0000000000	       -0.0000000000	        0.2029003516	       -0.0000795827	        0.4543649445	       -0.0000000000	       -0.0000000000	       -0.0000000000	        0.0000000000	        0.0000000000	        0.0000000000	        0.2076431971	        0.0000770316	        1.3583900146	       -0.0000000000	       -0.0000000000	        0.0000000000	
        2.8330000000	       -0.0046784377	        0.0366933265	        0.0022924796	        0.1988394961	        0.0000558755	       -0.3004071324	       -0.0021324039	        0.0000506052	       -0.0009053915	       -0.0000000000	        0.0000000000	       -0.0000000000	        0.2029003516	       -0.0000795827	        0.4543649445	       -0.0000000000	       -0.0000000000	       -0.0000000000	        0.0000000000	        0.0000000000	        0.0000000000	        0.2076431971	        0.0000770316	        1.3583900146	       -0.0000000000	       -0.0000000000	        0.0000000000	
        2.8340000000	       -0.0039338912	        0.0309302167	        0.0019124460	        0.1988394961	        0.0000558755	       -0.3004071324	       -0.0017979928	        0.0000527794	       -0.0007520428	       -0.0000000000	        0.0000000000	       -0.0000000000	        0.2029003516	       -0.0000795827	        0.4543649445	       -0.0000000000	       -0.0000000000	       -0.0000000000	        0.0000000000	        0.0000000000	        0.0000000000	        0.2076431971	        0.0000770316	        1.3583900146	       -0.0000000000	       -0.0000000000	        0.0000000000	
        2.8350000000	       -0.0031820247	        0.0250803496	        0.0015346618	        0.1988394961	        0.0000558755	       -0.3004071324	       -0.0014583450	        0.0000509470	       -0.0006008337	       -0.0000000000	        0.0000000000	       -0.0000000000	        0.2029003516	       -0.0000795827	        0.4543649445	       -0.0000000000	       -0.0000000000	       -0.0000000000	        0.0000000000	        0.0000000000	        0.0000000000	        0.2076431971	        0.0000770316	        1.3583900146	       -0.0000000000	       -0.0000000000	        0.0000000000	
        2.8360000000	       -0.0024723141	        0.0195382473	        0.0011820821	        0.1988394961	        0.0000558755	       -0.3004071324	       -0.0011364308	        0.0000465102	       -0.0004605538	       -0.0000000000	        0.0000000000	       -0.0000000000	        0.2029003516	       -0.0000795827	        0.4543649445	       -0.0000000000	       -0.0000000000	       -0.0000000000	        0.0000000000	        0.0000000000	        0.0000000000	        0.2076431971	        0.0000770316	        1.3583900146	       -0.0000000000	       -0.0000000000	        0.0000000000	
        2.8370000000	       -0.0018356954	        0.0145523734	        0.0008687063	        0.1988394961	        0.0000558755	       -0.3004071324	       -0.0008467283	        0.0000405840	       -0.0003364834	       -0.0000000000	        0.0000000000	       -0.0000000000	        0.2029003516	       -0.0000795827	        0.4543649445	       -0.0000000000	       -0.0000000000	       -0.0000000000	        0.0000000000	        0.0000000000	        0.0000000000	        0.2076431971	        0.0000770316	        1.3583900146	       -0.0000000000	       -0.0000000000	        0.0000000000	
        2.8380000000	       -0.0012885832	        0.0102564927	        0.0006015785	        0.1988394961	        0.0000558755	       -0.3004071324	       -0.0005970444	        0.0000340184	       -0.0002311903	       -0.0000000000	        0.0000000000	       -0.0000000000	        0.2029003516	       -0.0000795827	        0.4543649445	       -0.0000000000	       -0.0000000000	       -0.0000000000	        0.0000000000	        0.0000000000	        0.0000000000	        0.2076431971	        0.0000770316	        1.3583900146	       -0.0000000000	       -0.0000000000	        0.0000000000	
        2.8390000000	       -0.0008365075	        0.0066981423	        0.0003825805	        0.1988394961	        0.0000558755	       -0.3004071324	       -0.0003901694	        0.0000274303	       -0.0001452402	       -0.0000000000	        0.0000000000	       -0.0000000000	        0.2029003516	       -0.0000795827	        0.4543649445	       -0.0000000000	       -0.0000000000	       -0.0000000000	        0.0000000000	        0.0000000000	        0.0000000000	        0.2076431971	        0.0000770316	        1.3583900146	       -0.0000000000	       -0.0000000000	        0.0000000000	
